<?xml version="1.0" encoding="UTF-8" standalone="no"?>
<!-- Created with Inkscape (http://www.inkscape.org/) -->

<svg
   xmlns:dc="http://purl.org/dc/elements/1.1/"
   xmlns:cc="http://creativecommons.org/ns#"
   xmlns:rdf="http://www.w3.org/1999/02/22-rdf-syntax-ns#"
   xmlns:svg="http://www.w3.org/2000/svg"
   xmlns="http://www.w3.org/2000/svg"
   xmlns:sodipodi="http://sodipodi.sourceforge.net/DTD/sodipodi-0.dtd"
   xmlns:inkscape="http://www.inkscape.org/namespaces/inkscape"
   width="26.458334mm"
   height="26.458334mm"
   viewBox="0 0 26.458334 26.458334"
   version="1.1"
   id="svg8"
   inkscape:version="0.92.4 (5da689c313, 2019-01-14)"
   sodipodi:docname="favicon.svg"
   inkscape:export-filename="C:\xampp\htdocs\inces\images\favicon.png"
   inkscape:export-xdpi="96"
   inkscape:export-ydpi="96">
  <defs
     id="defs2" />
  <sodipodi:namedview
     id="base"
     pagecolor="#ffffff"
     bordercolor="#666666"
     borderopacity="1.0"
     inkscape:pageopacity="0.0"
     inkscape:pageshadow="2"
     inkscape:zoom="4"
     inkscape:cx="94.191095"
     inkscape:cy="22.07801"
     inkscape:document-units="mm"
     inkscape:current-layer="layer1"
     showgrid="false"
     showguides="false"
     inkscape:window-width="1440"
     inkscape:window-height="837"
     inkscape:window-x="-8"
     inkscape:window-y="-8"
     inkscape:window-maximized="1" />
  <metadata
     id="metadata5">
    <rdf:RDF>
      <cc:Work
         rdf:about="">
        <dc:format>image/svg+xml</dc:format>
        <dc:type
           rdf:resource="http://purl.org/dc/dcmitype/StillImage" />
        <dc:title></dc:title>
      </cc:Work>
    </rdf:RDF>
  </metadata>
  <g
     inkscape:label="Capa 1"
     inkscape:groupmode="layer"
     id="layer1"
     transform="translate(-24.213058,-148.4189)">
    <rect
       style="fill:#ffffff;fill-opacity:1;stroke:none;stroke-width:0.10376535;stroke-linecap:round;stroke-linejoin:round;stroke-miterlimit:4;stroke-dasharray:none"
       id="rect830"
       width="26.458334"
       height="26.458334"
       x="24.213058"
       y="148.4189"
       ry="3.96875" />
    <g
       id="g846"
       transform="matrix(1.3285479,0,0,1.3201173,-33.775624,-51.740074)">
      <path
         sodipodi:nodetypes="cccsccscccccscccccccc"
         inkscape:connector-curvature="0"
         transform="scale(0.26458333)"
         id="path1333"
         d="m 206.43945,582 c -0.97734,0.27586 -2.45414,0.89732 -4.25586,1.94141 -1.87039,1.08387 -4.03452,2.57469 -6.18164,4.46093 -1.07355,0.94312 -2.14207,1.98422 -3.16797,3.12305 -1.0259,1.13883 -2.0098,2.37574 -2.91015,3.70703 -0.90036,1.3313 -1.71715,2.75684 -2.41406,4.27735 -0.69692,1.5205 -1.27387,3.13533 -1.68946,4.84179 -0.41559,1.70646 -0.70621,3.35931 -0.89258,4.95313 -0.18636,1.59382 -0.26745,3.12882 -0.26367,4.59765 0.008,2.93767 0.35488,5.61294 0.88867,7.97657 0.5338,2.36362 1.25251,4.41466 2,6.10547 0.7475,1.6908 1.52517,3.02221 2.17383,3.9414 0.64867,0.91919 1.46206,1.99651 2.51172,3.17578 1.04966,1.17927 2.33494,2.45958 3.92383,3.78711 1.58889,1.32754 3.4817,2.70047 5.74805,4.06445 2.26634,1.36399 4.90625,2.7192 7.98828,4.00782 -12.93712,-7.02024 -21.83302,-25.1237 -14.75287,-40.71774 1.47699,-3.71229 3.38401,-6.34949 5.32411,-8.90401 l 5.13474,-5.46652 c -0.36504,-1.28138 -0.55613,-2.61899 -0.55754,-3.97814 7.6e-4,-2.08878 0.56825,-4.05426 1.39257,-5.89453 z"
         style="opacity:1;fill:#0066ff;stroke-width:0.55977011;stroke-linecap:round;stroke-miterlimit:4;stroke-dasharray:none" />
      <path
         transform="scale(0.26458333)"
         id="path1145-7"
         d="m 210.88672,574.75586 c -1.31062,0.16342 -3.41843,0.66448 -6.80274,1.81445 -9.74535,3.31147 -21.14093,10.55575 -24.82031,23.42383 -3.48961,12.2044 -1.98488,21.95346 5.09571,31.11719 7.08057,9.16373 25.56249,15.8789 25.5625,15.8789 -0.008,-0.009 -0.0156,-0.02 -0.0234,-0.0293 -3.08203,-1.28862 -5.72194,-2.64383 -7.98828,-4.00782 -2.26635,-1.36398 -4.15916,-2.73691 -5.74805,-4.06445 -1.58889,-1.32753 -2.87417,-2.60784 -3.92383,-3.78711 -1.04966,-1.17927 -1.86305,-2.25659 -2.51172,-3.17578 -0.64866,-0.91919 -1.42633,-2.2506 -2.17383,-3.9414 -0.74749,-1.69081 -1.4662,-3.74185 -2,-6.10547 -0.53379,-2.36363 -0.8811,-5.0389 -0.88867,-7.97657 -0.004,-1.46883 0.0773,-3.00383 0.26367,-4.59765 0.18637,-1.59382 0.47699,-3.24667 0.89258,-4.95313 0.41559,-1.70646 0.99254,-3.32129 1.68946,-4.84179 0.69691,-1.52051 1.5137,-2.94605 2.41406,-4.27735 0.90035,-1.33129 1.88425,-2.5682 2.91015,-3.70703 1.0259,-1.13883 2.09442,-2.17993 3.16797,-3.12305 2.14712,-1.88624 4.31125,-3.37706 6.18164,-4.46093 1.80172,-1.04409 3.27852,-1.66555 4.25586,-1.94141 1.3218,-2.95086 3.49261,-5.49116 6.46485,-7.03516 -0.19352,-0.19816 -0.70696,-0.3724 -2.01758,-0.20898 z"
         style="opacity:1;fill:#ffff00;stroke-width:0.55977011;stroke-linecap:round;stroke-miterlimit:4;stroke-dasharray:none"
         inkscape:connector-curvature="0" />
      <path
         transform="scale(0.26458333)"
         id="path1179"
         d="m 215.73047,601.92578 v 45.25391 h 7.95508 v -45.29297 a 14.577349,14.577349 0 0 1 -0.16211,0.0547 14.577349,14.577349 0 0 1 -1.41992,0.31836 14.577349,14.577349 0 0 1 -1.44727,0.17578 14.577349,14.577349 0 0 1 -1.03125,0.0371 14.577349,14.577349 0 0 1 -1.45508,-0.0742 14.577349,14.577349 0 0 1 -1.4414,-0.2168 14.577349,14.577349 0 0 1 -0.99805,-0.25586 z"
         style="opacity:1;fill:#e91624;fill-opacity:1;stroke-width:0.50418419;stroke-linecap:round;stroke-miterlimit:4;stroke-dasharray:none"
         inkscape:connector-curvature="0" />
      <path
         id="path1145"
         d="m 60.258855,155.54715 a 2.1497397,2.1497397 0 0 1 -2.149739,2.14974 2.1497397,2.1497397 0 0 1 -2.14974,-2.14974 2.1497397,2.1497397 0 0 1 2.14974,-2.14974 2.1497397,2.1497397 0 0 1 2.149739,2.14974 z"
         style="opacity:1;fill:#ec1421;fill-opacity:1;stroke-width:0.08255;stroke-linecap:round;stroke-miterlimit:4;stroke-dasharray:none"
         inkscape:connector-curvature="0" />
      <path
         transform="scale(0.26458333)"
         sodipodi:nodetypes="ccscccsscccscccc"
         inkscape:connector-curvature="0"
         id="path1288"
         d="m 209.89844,646.96094 c -1.29601,-1.53846 -2.59879,-3.15077 -3.82813,-4.91992 -1.23673,-1.77981 -2.39841,-3.71744 -3.40625,-5.89258 -1.00784,-2.17514 -1.86148,-4.5875 -2.47851,-7.32032 -0.61704,-2.73281 -0.99817,-5.78544 -1.0625,-9.23828 -0.0284,-1.52564 0.0814,-2.9679 0.30078,-4.32617 0.21941,-1.35826 0.54852,-2.63237 0.95703,-3.82422 0.40851,-1.19185 0.89668,-2.30172 1.43555,-3.32812 0.53887,-1.0264 1.12778,-1.97011 1.73828,-2.83203 1.22098,-1.72385 2.52659,-3.11968 3.68164,-4.19141 1.15504,-1.07173 2.1601,-1.81875 2.77929,-2.24609 -0.78848,-0.69111 -1.49214,-1.45887 -2.10546,-2.28711 -0.61332,-0.82824 -1.13685,-1.71688 -1.56055,-2.65039 -0.29892,-0.6586 -0.54769,-1.33768 -0.74609,-2.03516 -8.52021,6.20297 -13.47393,15.88875 -13.48633,26.20117 0.001,12.05392 6.82463,23.14064 17.78125,28.89063 z"
         style="opacity:1;fill:#ff0000;fill-opacity:1;stroke:none;stroke-width:0.29499501;stroke-linecap:round;stroke-miterlimit:4;stroke-dasharray:none" />
      <path
         sodipodi:nodetypes="cccccc"
         inkscape:connector-curvature="0"
         id="path1335"
         d="m 52.502387,156.23585 c -0.126126,-0.003 0.638752,-0.4624 1.001213,-0.64316 -0.09934,0.33569 -0.159666,0.75339 -0.260731,1.12792 -0.222528,-0.32266 -0.43826,-0.65211 -0.531037,-1.10452 0.572247,0.15321 0.710015,0.48746 1.047426,0.73852 -0.413658,-0.01 -0.822292,-0.022 -1.256871,-0.11876 z"
         style="fill:#ffffff;fill-opacity:1;stroke:none;stroke-width:0.26458332px;stroke-linecap:butt;stroke-linejoin:miter;stroke-opacity:1" />
      <path
         sodipodi:nodetypes="ccccccc"
         inkscape:connector-curvature="0"
         id="path1335-7"
         d="m 51.290274,157.60484 c -5.96e-4,-0.0335 0.546975,-0.6414 0.699814,-0.6414 l 0.01599,0.95335 c -0.257882,-0.23224 -0.46848,-0.52358 -0.625423,-0.88198 0.336623,0.14219 0.570706,0.12057 1.020336,0.48717 -0.568445,0.14654 -0.769259,0.0726 -1.110712,0.0829 z"
         style="fill:#ffffff;fill-opacity:1;stroke:none;stroke-width:0.23342529px;stroke-linecap:butt;stroke-linejoin:miter;stroke-opacity:1" />
      <path
         sodipodi:nodetypes="ccccccc"
         inkscape:connector-curvature="0"
         id="path1335-7-9"
         d="m 50.459372,159.19666 c -0.0056,-0.0317 0.421273,-0.69041 0.566087,-0.71352 l 0.159244,0.90088 c -0.279455,-0.18106 -0.523042,-0.42525 -0.725933,-0.74109 0.340453,0.0839 0.55897,0.0279 1.040414,0.30729 -0.516427,0.22487 -0.717872,0.1852 -1.039858,0.24645 z"
         style="fill:#ffffff;fill-opacity:1;stroke:none;stroke-width:0.22396569px;stroke-linecap:butt;stroke-linejoin:miter;stroke-opacity:1" />
      <path
         sodipodi:nodetypes="ccccccc"
         inkscape:connector-curvature="0"
         id="path1335-7-9-2"
         d="m 50.725469,167.05327 c -0.01845,-0.006 -0.244747,-0.42342 -0.215123,-0.50701 l 0.524445,0.17605 c -0.176989,0.096 -0.377123,0.15472 -0.603535,0.17109 0.143037,-0.15652 0.17653,-0.28875 0.464159,-0.46358 -0.03,0.33929 -0.109327,0.43477 -0.169952,0.62348 z"
         style="fill:#ffffff;fill-opacity:1;stroke:none;stroke-width:0.13543177px;stroke-linecap:butt;stroke-linejoin:miter;stroke-opacity:1" />
      <path
         sodipodi:nodetypes="ccccccc"
         inkscape:connector-curvature="0"
         id="path1335-7-9-2-3"
         d="m 50.079303,165.68163 c -0.01619,-0.0135 -0.0768,-0.52503 -0.01339,-0.5974 l 0.457996,0.38791 c -0.216931,0.0257 -0.442229,0.004 -0.677024,-0.0698 0.206993,-0.10036 0.293817,-0.22023 0.653905,-0.28104 -0.166394,0.32996 -0.284671,0.39438 -0.42151,0.56028 z"
         style="fill:#ffffff;fill-opacity:1;stroke:none;stroke-width:0.14693607px;stroke-linecap:butt;stroke-linejoin:miter;stroke-opacity:1" />
      <path
         sodipodi:nodetypes="ccccccc"
         inkscape:connector-curvature="0"
         id="path1335-7-9-2-3-1"
         d="m 49.662485,164.14003 c -0.01361,-0.0193 0.06916,-0.5907 0.158807,-0.65067 l 0.383324,0.55284 c -0.242319,-0.0351 -0.479946,-0.12395 -0.71274,-0.27196 0.253218,-0.0487 0.381993,-0.1532 0.789488,-0.11458 -0.275869,0.30897 -0.422612,0.3444 -0.618891,0.48431 z"
         style="fill:#ffffff;fill-opacity:1;stroke:none;stroke-width:0.16469422px;stroke-linecap:butt;stroke-linejoin:miter;stroke-opacity:1" />
      <path
         sodipodi:nodetypes="ccccccc"
         inkscape:connector-curvature="0"
         id="path1335-7-9-2-3-1-9"
         d="m 49.611662,162.4578 c -0.01016,-0.0263 0.191753,-0.71197 0.296786,-0.76873 l 0.284539,0.75053 c -0.243818,-0.0885 -0.471824,-0.2423 -0.682805,-0.46769 0.27214,-0.0122 0.426746,-0.11624 0.840891,0.008 -0.348521,0.32735 -0.507696,0.34327 -0.739414,0.47809 z"
         style="fill:#ffffff;fill-opacity:1;stroke:none;stroke-width:0.18844303px;stroke-linecap:butt;stroke-linejoin:miter;stroke-opacity:1" />
      <path
         sodipodi:nodetypes="ccccccc"
         inkscape:connector-curvature="0"
         id="path1335-7-9-9"
         d="m 49.939183,160.83836 c -0.01319,-0.0244 0.157889,-0.68014 0.270298,-0.73838 l 0.374981,0.69509 c -0.278158,-0.0725 -0.544052,-0.20657 -0.79604,-0.41035 0.301782,-0.0237 0.465667,-0.12883 0.936047,-0.0305 -0.362207,0.32443 -0.538064,0.34659 -0.785321,0.48416 z"
         style="fill:#ffffff;fill-opacity:1;stroke:none;stroke-width:0.19334887px;stroke-linecap:butt;stroke-linejoin:miter;stroke-opacity:1" />
    </g>
  </g>
</svg>
