<?xml version="1.0" encoding="UTF-8" standalone="no"?>
<!-- Created with Inkscape (http://www.inkscape.org/) -->

<svg
   xmlns:dc="http://purl.org/dc/elements/1.1/"
   xmlns:cc="http://creativecommons.org/ns#"
   xmlns:rdf="http://www.w3.org/1999/02/22-rdf-syntax-ns#"
   xmlns:svg="http://www.w3.org/2000/svg"
   xmlns="http://www.w3.org/2000/svg"
   xmlns:sodipodi="http://sodipodi.sourceforge.net/DTD/sodipodi-0.dtd"
   xmlns:inkscape="http://www.inkscape.org/namespaces/inkscape"
   width="82.020828mm"
   height="26.458334mm"
   viewBox="0 0 82.020828 26.458334"
   version="1.1"
   id="svg8"
   inkscape:version="0.92.4 (5da689c313, 2019-01-14)"
   sodipodi:docname="inces dibujo.svg">
  <defs
     id="defs2" />
  <sodipodi:namedview
     id="base"
     pagecolor="#ffffff"
     bordercolor="#666666"
     borderopacity="1.0"
     inkscape:pageopacity="0.0"
     inkscape:pageshadow="2"
     inkscape:zoom="2"
     inkscape:cx="155.62548"
     inkscape:cy="-17.673192"
     inkscape:document-units="mm"
     inkscape:current-layer="layer1"
     showgrid="false"
     showguides="false"
     inkscape:window-width="1440"
     inkscape:window-height="837"
     inkscape:window-x="-8"
     inkscape:window-y="-8"
     inkscape:window-maximized="1" />
  <metadata
     id="metadata5">
    <rdf:RDF>
      <cc:Work
         rdf:about="">
        <dc:format>image/svg+xml</dc:format>
        <dc:type
           rdf:resource="http://purl.org/dc/dcmitype/StillImage" />
        <dc:title />
      </cc:Work>
    </rdf:RDF>
  </metadata>
  <g
     inkscape:label="Capa 1"
     inkscape:groupmode="layer"
     id="layer1"
     transform="translate(-35.707916,-148.42704)">
    <g
       id="g846"
       transform="matrix(1.3882008,0,0,1.3793916,-29.471873,-61.31454)">
      <path
         sodipodi:nodetypes="cccsccscccccscccccccc"
         inkscape:connector-curvature="0"
         transform="scale(0.26458333)"
         id="path1333"
         d="m 206.43945,582 c -0.97734,0.27586 -2.45414,0.89732 -4.25586,1.94141 -1.87039,1.08387 -4.03452,2.57469 -6.18164,4.46093 -1.07355,0.94312 -2.14207,1.98422 -3.16797,3.12305 -1.0259,1.13883 -2.0098,2.37574 -2.91015,3.70703 -0.90036,1.3313 -1.71715,2.75684 -2.41406,4.27735 -0.69692,1.5205 -1.27387,3.13533 -1.68946,4.84179 -0.41559,1.70646 -0.70621,3.35931 -0.89258,4.95313 -0.18636,1.59382 -0.26745,3.12882 -0.26367,4.59765 0.008,2.93767 0.35488,5.61294 0.88867,7.97657 0.5338,2.36362 1.25251,4.41466 2,6.10547 0.7475,1.6908 1.52517,3.02221 2.17383,3.9414 0.64867,0.91919 1.46206,1.99651 2.51172,3.17578 1.04966,1.17927 2.33494,2.45958 3.92383,3.78711 1.58889,1.32754 3.4817,2.70047 5.74805,4.06445 2.26634,1.36399 4.90625,2.7192 7.98828,4.00782 -12.93712,-7.02024 -21.83302,-25.1237 -14.75287,-40.71774 1.47699,-3.71229 3.38401,-6.34949 5.32411,-8.90401 l 5.13474,-5.46652 c -0.36504,-1.28138 -0.55613,-2.61899 -0.55754,-3.97814 7.6e-4,-2.08878 0.56825,-4.05426 1.39257,-5.89453 z"
         style="opacity:1;fill:#0066ff;stroke-width:0.55977011;stroke-linecap:round;stroke-miterlimit:4;stroke-dasharray:none" />
      <path
         transform="scale(0.26458333)"
         id="path1145-7"
         d="m 210.88672,574.75586 c -1.31062,0.16342 -3.41843,0.66448 -6.80274,1.81445 -9.74535,3.31147 -21.14093,10.55575 -24.82031,23.42383 -3.48961,12.2044 -1.98488,21.95346 5.09571,31.11719 7.08057,9.16373 25.56249,15.8789 25.5625,15.8789 -0.008,-0.009 -0.0156,-0.02 -0.0234,-0.0293 -3.08203,-1.28862 -5.72194,-2.64383 -7.98828,-4.00782 -2.26635,-1.36398 -4.15916,-2.73691 -5.74805,-4.06445 -1.58889,-1.32753 -2.87417,-2.60784 -3.92383,-3.78711 -1.04966,-1.17927 -1.86305,-2.25659 -2.51172,-3.17578 -0.64866,-0.91919 -1.42633,-2.2506 -2.17383,-3.9414 -0.74749,-1.69081 -1.4662,-3.74185 -2,-6.10547 -0.53379,-2.36363 -0.8811,-5.0389 -0.88867,-7.97657 -0.004,-1.46883 0.0773,-3.00383 0.26367,-4.59765 0.18637,-1.59382 0.47699,-3.24667 0.89258,-4.95313 0.41559,-1.70646 0.99254,-3.32129 1.68946,-4.84179 0.69691,-1.52051 1.5137,-2.94605 2.41406,-4.27735 0.90035,-1.33129 1.88425,-2.5682 2.91015,-3.70703 1.0259,-1.13883 2.09442,-2.17993 3.16797,-3.12305 2.14712,-1.88624 4.31125,-3.37706 6.18164,-4.46093 1.80172,-1.04409 3.27852,-1.66555 4.25586,-1.94141 1.3218,-2.95086 3.49261,-5.49116 6.46485,-7.03516 -0.19352,-0.19816 -0.70696,-0.3724 -2.01758,-0.20898 z"
         style="opacity:1;fill:#ffff00;stroke-width:0.55977011;stroke-linecap:round;stroke-miterlimit:4;stroke-dasharray:none"
         inkscape:connector-curvature="0" />
      <path
         sodipodi:nodetypes="cccccccccccccccccccccccccccccccccccccccccc"
         inkscape:connector-curvature="0"
         id="path826"
         d="m 66.002427,159.78766 c -3.179758,2e-5 -5.764856,2.5801 -5.769158,5.75986 l 0.0057,5.68544 h 2.095997 l -5.29e-4,-5.75056 c -5.29e-4,-0.0605 0.0056,-0.1814 0.01757,-0.30179 0.01233,-0.1228 0.03078,-0.24491 0.0553,-0.36586 0.02447,-0.12117 0.05501,-0.24104 0.09147,-0.35916 0.03655,-0.11797 0.07898,-0.23404 0.127124,-0.34778 0.04798,-0.11371 0.101624,-0.22496 0.160713,-0.33331 0.05929,-0.10842 0.123966,-0.2138 0.193787,-0.31574 0.0698,-0.10187 0.144655,-0.20017 0.224276,-0.29456 0.07948,-0.0946 0.163648,-0.18513 0.25218,-0.2713 0.08855,-0.0859 0.181343,-0.16729 0.278019,-0.24391 0.09677,-0.0768 0.197321,-0.14874 0.301273,-0.21549 0.103997,-0.0668 0.211275,-0.1284 0.321429,-0.18449 0.110069,-0.0559 0.222864,-0.10626 0.337963,-0.1509 0.115112,-0.0448 0.232394,-0.0837 0.351401,-0.11678 0.118978,-0.0331 0.239535,-0.0601 0.361217,-0.0811 0.121647,-0.0211 0.244274,-0.0361 0.367419,-0.045 0.0872,-0.006 0.174585,-0.009 0.262001,-0.009 0.123568,3e-5 0.247057,0.006 0.370004,0.0186 0.122801,0.0123 0.244909,0.0308 0.365868,0.0553 0.121177,0.0247 0.241044,0.0554 0.359151,0.092 0.117965,0.0364 0.234037,0.0786 0.347782,0.12661 0.113723,0.0481 0.224967,0.10196 0.333314,0.16123 0.108402,0.0591 0.213783,0.12362 0.315743,0.19327 0.101862,0.0698 0.20017,0.14465 0.294555,0.22427 0.09441,0.0795 0.18478,0.16367 0.270785,0.25219 0.08607,0.0887 0.167651,0.18167 0.24443,0.27853 0.07681,0.0968 0.148731,0.19732 0.21549,0.30127 0.06681,0.10383 0.128376,0.21094 0.184484,0.32091 0.0559,0.11007 0.106262,0.22287 0.150897,0.33797 0.04476,0.11511 0.08374,0.23239 0.116787,0.3514 0.03305,0.11898 0.06013,0.23953 0.08113,0.36122 0.02096,0.12183 0.03578,0.24462 0.04444,0.36793 0.0062,0.0872 0.0093,0.17459 0.0093,0.262 l 5.29e-4,5.68234 h 2.020033 c -0.0155,0.0241 0.0031,-5.68234 0.0031,-5.68234 -2.7e-5,-3.18278 -2.580174,-5.76293 -5.762956,-5.76295 z"
         style="opacity:1;fill:#e91624;fill-opacity:1;stroke-width:0.13914825;stroke-linecap:round;stroke-miterlimit:4;stroke-dasharray:none" />
      <path
         transform="scale(0.26458333)"
         id="path1179"
         d="m 215.73047,601.92578 v 45.25391 h 7.95508 v -45.29297 a 14.577349,14.577349 0 0 1 -0.16211,0.0547 14.577349,14.577349 0 0 1 -1.41992,0.31836 14.577349,14.577349 0 0 1 -1.44727,0.17578 14.577349,14.577349 0 0 1 -1.03125,0.0371 14.577349,14.577349 0 0 1 -1.45508,-0.0742 14.577349,14.577349 0 0 1 -1.4414,-0.2168 14.577349,14.577349 0 0 1 -0.99805,-0.25586 z"
         style="opacity:1;fill:#e91624;fill-opacity:1;stroke-width:0.50418419;stroke-linecap:round;stroke-miterlimit:4;stroke-dasharray:none"
         inkscape:connector-curvature="0" />
      <path
         transform="scale(0.26458333)"
         id="path826-1"
         d="m 296.48047,603.61719 a 21.781415,21.781415 0 0 0 -21.7832,21.78125 21.781415,21.781415 0 0 0 21.7832,21.78125 21.781415,21.781415 0 0 0 15.47656,-6.4668 l -5.43555,-5.43555 a 14.000546,14.000546 0 0 1 -0.15429,0.16407 14.000546,14.000546 0 0 1 -1.05078,0.92382 14.000546,14.000546 0 0 1 -1.13868,0.81446 14.000546,14.000546 0 0 1 -1.21289,0.69531 14.000546,14.000546 0 0 1 -1.27734,0.57227 14.000546,14.000546 0 0 1 -1.32812,0.4414 14.000546,14.000546 0 0 1 -1.36524,0.30664 14.000546,14.000546 0 0 1 -1.39062,0.16797 14.000546,14.000546 0 0 1 -0.99024,0.0332 14.000546,14.000546 0 0 1 -1.39648,-0.0703 14.000546,14.000546 0 0 1 -1.38477,-0.20898 14.000546,14.000546 0 0 1 -1.35547,-0.34571 14.000546,14.000546 0 0 1 -1.31445,-0.48046 14.000546,14.000546 0 0 1 -1.26172,-0.60938 14.000546,14.000546 0 0 1 -1.19141,-0.73047 14.000546,14.000546 0 0 1 -1.11523,-0.84765 14.000546,14.000546 0 0 1 -1.02344,-0.95313 14.000546,14.000546 0 0 1 -0.92383,-1.05078 14.000546,14.000546 0 0 1 -0.81445,-1.13867 14.000546,14.000546 0 0 1 -0.69531,-1.21485 14.000546,14.000546 0 0 1 -0.57227,-1.27734 14.000546,14.000546 0 0 1 -0.4414,-1.32813 14.000546,14.000546 0 0 1 -0.30664,-1.36523 14.000546,14.000546 0 0 1 -0.16797,-1.38867 14.000546,14.000546 0 0 1 -0.0352,-0.99024 14.000546,14.000546 0 0 1 0.0703,-1.39843 14.000546,14.000546 0 0 1 0.20899,-1.38282 14.000546,14.000546 0 0 1 0.3457,-1.35742 14.000546,14.000546 0 0 1 0.48047,-1.31445 14.000546,14.000546 0 0 1 0.60742,-1.25977 14.000546,14.000546 0 0 1 0.73242,-1.19336 14.000546,14.000546 0 0 1 0.84766,-1.11328 14.000546,14.000546 0 0 1 0.95313,-1.02539 14.000546,14.000546 0 0 1 1.05078,-0.92187 14.000546,14.000546 0 0 1 1.13867,-0.81446 14.000546,14.000546 0 0 1 1.21484,-0.69726 14.000546,14.000546 0 0 1 1.27735,-0.57031 14.000546,14.000546 0 0 1 1.32812,-0.44141 14.000546,14.000546 0 0 1 1.36524,-0.30664 14.000546,14.000546 0 0 1 1.38867,-0.16992 14.000546,14.000546 0 0 1 0.99023,-0.0332 14.000546,14.000546 0 0 1 1.39844,0.0703 14.000546,14.000546 0 0 1 1.38281,0.20898 14.000546,14.000546 0 0 1 1.35742,0.34766 14.000546,14.000546 0 0 1 1.31446,0.47851 14.000546,14.000546 0 0 1 1.25976,0.60938 14.000546,14.000546 0 0 1 1.19336,0.73047 14.000546,14.000546 0 0 1 1.11328,0.84765 14.000546,14.000546 0 0 1 1.02344,0.95313 14.000546,14.000546 0 0 1 0.92383,1.05273 14.000546,14.000546 0 0 1 0.81445,1.13867 14.000546,14.000546 0 0 1 0.42969,0.75 l 5.56836,-5.56836 a 21.781415,21.781415 0 0 0 -17.91211,-9.39843 z"
         style="opacity:1;fill:#e91624;fill-opacity:1;stroke-width:0.52591467;stroke-linecap:round;stroke-miterlimit:4;stroke-dasharray:none"
         inkscape:connector-curvature="0" />
      <path
         sodipodi:nodetypes="ccccccccccccccccccccccccccccsccccccccccccccccccccccccccccccc"
         inkscape:connector-curvature="0"
         transform="scale(0.26458333)"
         id="path826-8"
         d="m 336.30273,603.61719 c -12.03018,-9.9e-4 -21.78311,9.75107 -21.7832,21.78125 9e-5,12.03018 9.75302,21.78224 21.7832,21.78125 5.90769,-0.007 11.55905,-2.41383 15.65821,-6.66797 l -5.4336,-5.4336 c -0.11048,0.12308 -0.22312,0.2442 -0.33789,0.36329 -0.33464,0.32526 -0.68534,0.63358 -1.05078,0.92382 -0.36574,0.29031 -0.74577,0.56213 -1.13867,0.81446 -0.39247,0.25182 -0.79727,0.48388 -1.21289,0.69531 -0.41597,0.21193 -0.84229,0.40293 -1.27734,0.57227 -0.43507,0.16918 -0.87834,0.3165 -1.32813,0.4414 -0.44968,0.1249 -0.90533,0.22725 -1.36523,0.30664 -0.46045,0.0792 -0.92457,0.13522 -1.39063,0.16797 -0.32958,0.0227 -0.65987,0.0338 -0.99023,0.0332 -0.46638,-1.6e-4 -0.93245,-0.0236 -1.39649,-0.0703 -0.46478,-0.0465 -0.92695,-0.11626 -1.38476,-0.20898 -0.4573,-0.0926 -0.90969,-0.20796 -1.35547,-0.34571 -0.44589,-0.13814 -0.88458,-0.29849 -1.31445,-0.48046 -0.43048,-0.18194 -0.85158,-0.38532 -1.26172,-0.60938 -0.40905,-0.22351 -0.80668,-0.4673 -1.19141,-0.73047 -0.38565,-0.26376 -0.75786,-0.54667 -1.11523,-0.84765 -0.35681,-0.30046 -0.69838,-0.61857 -1.02344,-0.95313 -0.32526,-0.33464 -0.63359,-0.68534 -0.92383,-1.05078 -0.2903,-0.36574 -0.56213,-0.74577 -0.81445,-1.13867 -0.25188,-0.3931 -0.48395,-0.79856 -0.69532,-1.21485 -0.21193,-0.41597 -0.40292,-0.84229 -0.57226,-1.27734 -0.11917,-0.31889 -0.22666,-0.64202 -0.32227,-0.96875 11.41991,0 22.83982,0 34.25973,0 0.16573,-5.11813 -0.38161,-9.40491 -1.97617,-12.92325 -3.96825,-8.75577 -12.23258,-12.75245 -19.04528,-12.95956 z m 0.0444,7.02799 c 0.46702,10e-5 0.93433,0.0285 1.40013,0.0847 0.46525,0.0562 0.92845,0.14009 1.38776,0.25101 0.46015,0.1115 0.91582,0.24984 1.36521,0.4138 0.44884,0.16296 0.8909,0.35121 1.32439,0.56303 0.43341,0.21251 0.85767,0.44832 1.27107,0.70544 0.41361,0.25657 0.81587,0.53413 1.20514,0.83055 0.38889,0.29701 0.76428,0.61247 1.12464,0.94428 0.36044,0.33132 0.70544,0.67857 1.03363,1.03968 0.32843,0.36186 0.63958,0.73715 0.9322,1.12399 0.29275,0.38647 0.56663,0.78399 0.8206,1.19085 0.25413,0.40639 0.48807,0.82161 0.70093,1.24414 0.21208,0.42287 0.40282,0.85249 0.57152,1.28751 0.15405,0.40046 0.2896,0.80779 0.40624,1.2207 h -26.90234 c 0.1266,-0.55499 0.37207,-1.12877 0.55267,-1.60242 0.18113,-0.43174 0.38323,-0.85756 0.60551,-1.27603 0.22302,-0.4187 0.466,-0.82951 0.72801,-1.23084 0.26193,-0.401 0.54255,-0.79203 0.84083,-1.17132 0.29776,-0.38003 0.61284,-0.74786 0.94416,-1.10155 0.3314,-0.35258 0.67853,-0.69059 1.04018,-1.01195 0.362,-0.32211 0.73813,-0.62711 1.12709,-0.91289 0.38912,-0.28599 0.79062,-0.55238 1.20311,-0.79703 0.41218,-0.24388 0.83477,-0.46577 1.26635,-0.66374 0.43163,-0.19847 0.87173,-0.37274 1.31874,-0.5212 0.44691,-0.14845 0.9002,-0.27091 1.35823,-0.36615 0.45791,-0.0956 0.92002,-0.16389 1.38465,-0.20415 0.32901,-0.0276 0.65901,-0.0411 0.98938,-0.0405 z"
         style="opacity:1;fill:#e91624;fill-opacity:1;stroke-width:0.52591467;stroke-linecap:round;stroke-miterlimit:4;stroke-dasharray:none" />
      <path
         id="path1145"
         d="m 60.258855,155.54715 a 2.1497397,2.1497397 0 0 1 -2.149739,2.14974 2.1497397,2.1497397 0 0 1 -2.14974,-2.14974 2.1497397,2.1497397 0 0 1 2.14974,-2.14974 2.1497397,2.1497397 0 0 1 2.149739,2.14974 z"
         style="opacity:1;fill:#ec1421;fill-opacity:1;stroke-width:0.08255;stroke-linecap:round;stroke-miterlimit:4;stroke-dasharray:none"
         inkscape:connector-curvature="0" />
      <path
         transform="scale(0.26458333)"
         sodipodi:nodetypes="ccscccsscccscccc"
         inkscape:connector-curvature="0"
         id="path1288"
         d="m 209.89844,646.96094 c -1.29601,-1.53846 -2.59879,-3.15077 -3.82813,-4.91992 -1.23673,-1.77981 -2.39841,-3.71744 -3.40625,-5.89258 -1.00784,-2.17514 -1.86148,-4.5875 -2.47851,-7.32032 -0.61704,-2.73281 -0.99817,-5.78544 -1.0625,-9.23828 -0.0284,-1.52564 0.0814,-2.9679 0.30078,-4.32617 0.21941,-1.35826 0.54852,-2.63237 0.95703,-3.82422 0.40851,-1.19185 0.89668,-2.30172 1.43555,-3.32812 0.53887,-1.0264 1.12778,-1.97011 1.73828,-2.83203 1.22098,-1.72385 2.52659,-3.11968 3.68164,-4.19141 1.15504,-1.07173 2.1601,-1.81875 2.77929,-2.24609 -0.78848,-0.69111 -1.49214,-1.45887 -2.10546,-2.28711 -0.61332,-0.82824 -1.13685,-1.71688 -1.56055,-2.65039 -0.29892,-0.6586 -0.54769,-1.33768 -0.74609,-2.03516 -8.52021,6.20297 -13.47393,15.88875 -13.48633,26.20117 0.001,12.05392 6.82463,23.14064 17.78125,28.89063 z"
         style="opacity:1;fill:#ff0000;fill-opacity:1;stroke:none;stroke-width:0.29499501;stroke-linecap:round;stroke-miterlimit:4;stroke-dasharray:none" />
      <path
         sodipodi:nodetypes="cccccc"
         inkscape:connector-curvature="0"
         id="path1335"
         d="m 52.502387,156.23585 c -0.126126,-0.003 0.638752,-0.4624 1.001213,-0.64316 -0.09934,0.33569 -0.159666,0.75339 -0.260731,1.12792 -0.222528,-0.32266 -0.43826,-0.65211 -0.531037,-1.10452 0.572247,0.15321 0.710015,0.48746 1.047426,0.73852 -0.413658,-0.01 -0.822292,-0.022 -1.256871,-0.11876 z"
         style="fill:#ffffff;fill-opacity:1;stroke:none;stroke-width:0.26458332px;stroke-linecap:butt;stroke-linejoin:miter;stroke-opacity:1" />
      <path
         sodipodi:nodetypes="ccccccc"
         inkscape:connector-curvature="0"
         id="path1335-7"
         d="m 51.290274,157.60484 c -5.96e-4,-0.0335 0.546975,-0.6414 0.699814,-0.6414 l 0.01599,0.95335 c -0.257882,-0.23224 -0.46848,-0.52358 -0.625423,-0.88198 0.336623,0.14219 0.570706,0.12057 1.020336,0.48717 -0.568445,0.14654 -0.769259,0.0726 -1.110712,0.0829 z"
         style="fill:#ffffff;fill-opacity:1;stroke:none;stroke-width:0.23342529px;stroke-linecap:butt;stroke-linejoin:miter;stroke-opacity:1" />
      <path
         sodipodi:nodetypes="ccccccc"
         inkscape:connector-curvature="0"
         id="path1335-7-9"
         d="m 50.459372,159.19666 c -0.0056,-0.0317 0.421273,-0.69041 0.566087,-0.71352 l 0.159244,0.90088 c -0.279455,-0.18106 -0.523042,-0.42525 -0.725933,-0.74109 0.340453,0.0839 0.55897,0.0279 1.040414,0.30729 -0.516427,0.22487 -0.717872,0.1852 -1.039858,0.24645 z"
         style="fill:#ffffff;fill-opacity:1;stroke:none;stroke-width:0.22396569px;stroke-linecap:butt;stroke-linejoin:miter;stroke-opacity:1" />
      <path
         sodipodi:nodetypes="ccccccc"
         inkscape:connector-curvature="0"
         id="path1335-7-9-2"
         d="m 50.725469,167.05327 c -0.01845,-0.006 -0.244747,-0.42342 -0.215123,-0.50701 l 0.524445,0.17605 c -0.176989,0.096 -0.377123,0.15472 -0.603535,0.17109 0.143037,-0.15652 0.17653,-0.28875 0.464159,-0.46358 -0.03,0.33929 -0.109327,0.43477 -0.169952,0.62348 z"
         style="fill:#ffffff;fill-opacity:1;stroke:none;stroke-width:0.13543177px;stroke-linecap:butt;stroke-linejoin:miter;stroke-opacity:1" />
      <path
         sodipodi:nodetypes="ccccccc"
         inkscape:connector-curvature="0"
         id="path1335-7-9-2-3"
         d="m 50.079303,165.68163 c -0.01619,-0.0135 -0.0768,-0.52503 -0.01339,-0.5974 l 0.457996,0.38791 c -0.216931,0.0257 -0.442229,0.004 -0.677024,-0.0698 0.206993,-0.10036 0.293817,-0.22023 0.653905,-0.28104 -0.166394,0.32996 -0.284671,0.39438 -0.42151,0.56028 z"
         style="fill:#ffffff;fill-opacity:1;stroke:none;stroke-width:0.14693607px;stroke-linecap:butt;stroke-linejoin:miter;stroke-opacity:1" />
      <path
         sodipodi:nodetypes="ccccccc"
         inkscape:connector-curvature="0"
         id="path1335-7-9-2-3-1"
         d="m 49.662485,164.14003 c -0.01361,-0.0193 0.06916,-0.5907 0.158807,-0.65067 l 0.383324,0.55284 c -0.242319,-0.0351 -0.479946,-0.12395 -0.71274,-0.27196 0.253218,-0.0487 0.381993,-0.1532 0.789488,-0.11458 -0.275869,0.30897 -0.422612,0.3444 -0.618891,0.48431 z"
         style="fill:#ffffff;fill-opacity:1;stroke:none;stroke-width:0.16469422px;stroke-linecap:butt;stroke-linejoin:miter;stroke-opacity:1" />
      <path
         sodipodi:nodetypes="ccccccc"
         inkscape:connector-curvature="0"
         id="path1335-7-9-2-3-1-9"
         d="m 49.611662,162.4578 c -0.01016,-0.0263 0.191753,-0.71197 0.296786,-0.76873 l 0.284539,0.75053 c -0.243818,-0.0885 -0.471824,-0.2423 -0.682805,-0.46769 0.27214,-0.0122 0.426746,-0.11624 0.840891,0.008 -0.348521,0.32735 -0.507696,0.34327 -0.739414,0.47809 z"
         style="fill:#ffffff;fill-opacity:1;stroke:none;stroke-width:0.18844303px;stroke-linecap:butt;stroke-linejoin:miter;stroke-opacity:1" />
      <path
         sodipodi:nodetypes="ccccccc"
         inkscape:connector-curvature="0"
         id="path1335-7-9-9"
         d="m 49.939183,160.83836 c -0.01319,-0.0244 0.157889,-0.68014 0.270298,-0.73838 l 0.374981,0.69509 c -0.278158,-0.0725 -0.544052,-0.20657 -0.79604,-0.41035 0.301782,-0.0237 0.465667,-0.12883 0.936047,-0.0305 -0.362207,0.32443 -0.538064,0.34659 -0.785321,0.48416 z"
         style="fill:#ffffff;fill-opacity:1;stroke:none;stroke-width:0.19334887px;stroke-linecap:butt;stroke-linejoin:miter;stroke-opacity:1" />
      <path
         sodipodi:nodetypes="cszzscccccsccccccccccsszzscccscccssccscccsc"
         inkscape:connector-curvature="0"
         id="path1487"
         d="m 100.49671,159.80275 c -2.717109,0 -4.984083,0.87501 -5.025019,3.28611 -0.0117,0.68887 0.219553,1.58754 0.986382,2.30562 0.766826,0.71808 1.860333,0.85805 2.307423,0.9036 0.447093,0.0456 1.263284,0.1115 1.825774,0.11771 0.48173,0.005 0.93777,0.0139 1.35083,0.0496 0.41305,0.0357 0.78309,0.0932 1.09295,0.18087 0.30987,0.0877 0.55956,0.20563 0.73174,0.36173 0.0861,0.078 0.15272,0.16584 0.19792,0.26407 0.0452,0.0982 0.0687,0.20667 0.0687,0.32711 0,0.24088 -0.0542,0.46165 -0.1757,0.65784 -0.12153,0.19619 -0.31025,0.36803 -0.57877,0.51056 -0.26853,0.14253 -0.61686,0.25601 -1.05782,0.3359 -0.44096,0.0799 -0.97448,0.12609 -1.61334,0.13436 -0.638854,0.008 -1.177291,-0.0311 -1.625739,-0.11007 -0.448448,-0.079 -0.806701,-0.19768 -1.085204,-0.34727 -0.278503,-0.14959 -0.477145,-0.33026 -0.606166,-0.53381 -0.129021,-0.20356 -0.188619,-0.42989 -0.188619,-0.67077 l -0.0021,-0.4625 h -2.08549 l -0.0011,0.45579 c 0,1.88136 2.070921,3.76869 5.528348,3.66127 4.06754,-0.12638 5.49527,-1.75666 5.49527,-3.63802 0,-0.98041 -0.49256,-1.7712 -1.38903,-2.35792 -0.89647,-0.58671 -1.88602,-0.57905 -2.57122,-0.62448 -0.6852,-0.0454 -1.49535,-0.0572 -1.70348,-0.0572 -0.412867,0 -0.798162,-0.029 -1.145157,-0.0873 -0.346996,-0.0584 -0.656659,-0.14625 -0.917258,-0.26303 -0.260593,-0.11678 -0.471749,-0.26246 -0.618051,-0.4377 -0.146304,-0.17524 -0.227374,-0.37966 -0.227374,-0.6134 0,-0.23375 0.08108,-0.43867 0.227374,-0.61391 0.146302,-0.17525 0.357455,-0.32092 0.618051,-0.4377 0.260596,-0.11678 0.570259,-0.20467 0.917258,-0.26304 0.346998,-0.0583 0.732287,-0.0873 1.145157,-0.0873 0.41286,0 0.80601,0.0391 1.16375,0.11007 0.35774,0.0709 0.67977,0.17341 0.95033,0.30024 0.27056,0.12683 0.45131,0.27259 0.57361,0.43615 0.12229,0.16356 0.18655,0.34545 0.18655,0.53899 0,0.0582 -0.002,0.11629 -0.002,0.17466 l 2.04215,0.008 1e-4,-0.22893 c 0,-1.75664 -2.07381,-3.28611 -4.79092,-3.28611 z"
         style="opacity:1;fill:#e91624;fill-opacity:1;stroke:none;stroke-width:0.13976802;stroke-linecap:round;stroke-miterlimit:4;stroke-dasharray:none" />
    </g>
  </g>
</svg>
